<mxfile host="app.diagrams.net" modified="2023-10-22T16:19:22.725Z" agent="Mozilla/5.0 (Windows NT 10.0; Win64; x64; rv:109.0) Gecko/20100101 Firefox/118.0" etag="oWCD99ji7L4LcZVEjG1K" version="22.0.6" type="github">
  <diagram name="Page-1" id="sWqkfUj6m_CCeIlrbYhG">
    <mxGraphModel dx="1290" dy="606" grid="1" gridSize="10" guides="1" tooltips="1" connect="1" arrows="1" fold="1" page="1" pageScale="1" pageWidth="1169" pageHeight="827" math="0" shadow="0">
      <root>
        <mxCell id="0" />
        <mxCell id="1" parent="0" />
        <mxCell id="vdYmqRAd1pRQnadH-3AE-3" value="" style="rounded=0;whiteSpace=wrap;html=1;" parent="1" vertex="1">
          <mxGeometry x="540" y="348.5" width="530" height="60" as="geometry" />
        </mxCell>
        <mxCell id="hN_NPj9hov84vUHAl6w_-6" value="" style="ellipse;whiteSpace=wrap;html=1;aspect=fixed;" parent="1" vertex="1">
          <mxGeometry x="995" y="313.5" width="130" height="130" as="geometry" />
        </mxCell>
        <mxCell id="vdYmqRAd1pRQnadH-3AE-2" value="" style="rounded=0;whiteSpace=wrap;html=1;" parent="1" vertex="1">
          <mxGeometry x="480" y="298.5" width="60" height="160" as="geometry" />
        </mxCell>
        <mxCell id="hN_NPj9hov84vUHAl6w_-5" value="" style="ellipse;whiteSpace=wrap;html=1;aspect=fixed;" parent="1" vertex="1">
          <mxGeometry x="1020" y="338.5" width="80" height="80" as="geometry" />
        </mxCell>
        <mxCell id="0i8E-aVRz_baijCmf47E-4" value="&lt;font style=&quot;font-size: 48px;&quot;&gt;d&lt;/font&gt;" style="text;html=1;strokeColor=none;fillColor=none;align=center;verticalAlign=middle;whiteSpace=wrap;rounded=0;" parent="1" vertex="1">
          <mxGeometry x="570" y="363.5" width="60" height="30" as="geometry" />
        </mxCell>
        <mxCell id="ppKn935N6U3gsbhXk4df-1" value="&lt;font style=&quot;font-size: 48px;&quot;&gt;D&lt;/font&gt;" style="text;html=1;strokeColor=none;fillColor=none;align=center;verticalAlign=middle;whiteSpace=wrap;rounded=0;" parent="1" vertex="1">
          <mxGeometry x="400" y="363.5" width="60" height="30" as="geometry" />
        </mxCell>
        <mxCell id="ppKn935N6U3gsbhXk4df-2" value="" style="endArrow=classic;startArrow=classic;html=1;rounded=0;exitX=0.038;exitY=-0.028;exitDx=0;exitDy=0;exitPerimeter=0;" parent="1" source="vdYmqRAd1pRQnadH-3AE-3" edge="1">
          <mxGeometry width="50" height="50" relative="1" as="geometry">
            <mxPoint x="560" y="440" as="sourcePoint" />
            <mxPoint x="560" y="410" as="targetPoint" />
          </mxGeometry>
        </mxCell>
        <mxCell id="ppKn935N6U3gsbhXk4df-3" value="" style="endArrow=classic;startArrow=classic;html=1;rounded=0;" parent="1" edge="1">
          <mxGeometry width="50" height="50" relative="1" as="geometry">
            <mxPoint x="460" y="300" as="sourcePoint" />
            <mxPoint x="460" y="460" as="targetPoint" />
          </mxGeometry>
        </mxCell>
      </root>
    </mxGraphModel>
  </diagram>
</mxfile>
